# generated from PmQm by Jehee Lee
:FULLY-SPECIFIED
:DEGREES
138
root 2.53586 39.4709 -30.4289 -175.693 17.4936 -177.634
RightUpLeg -11.983 0.797257 -1.08149
RightLeg 7.20574 21.9204 -1.69319
RightFoot -3.53119 -0.541566 7.57865
RightToes -0.000541893 -0.000659172 -0.000493268
Spine 2.81884 -0.916986 1.46853
Spine1 5.6362 -1.94336 2.10813
HEad 20.9818 -25.519 1.50211
LeftShoulder1 -3.88251e-019 -0 -3.92111e-022
LeftArm -33.7064 1.632 -83.5054
LeftForeArm 31.2436 2.14257 -0.218317
LeftHand -0.929992 -4.31543 11.3821
RightShoulder 7.45443e-017 -2.42657e-020 1.96277e-018
RightArm -25.3188 -11.8162 70.7296
RightForeArm 19.6697 7.15745 8.24714
RightHand -1.46465 11.0751 -10.6806
LeftUpLeg -11.2758 -0.990772 -0.221961
LeftLeg 10.7738 -3.11064 0.404458
LeftFoot -5.46659 -0.145617 3.48085
LeftToes 3.91355e-005 3.11907e-005 -4.10385e-006
139
root 2.44437 39.4584 -31.0463 -176.918 18.5524 -177.824
RightUpLeg -10.4305 1.75773 -1.71804
RightLeg 8.49299 22.3446 -1.18318
RightFoot -5.44923 -0.424014 7.49615
RightToes -0.000541893 -0.000659172 -0.000493268
Spine 2.49469 -0.988161 1.25164
Spine1 4.98399 -2.04031 1.91691
HEad 23.3151 -23.4633 0.527406
LeftShoulder1 -3.88251e-019 -0 -3.92111e-022
LeftArm -33.4913 0.271782 -82.9457
LeftForeArm 30.9604 2.18056 -0.536275
LeftHand -0.939593 -4.32281 11.4877
RightShoulder 7.45443e-017 -2.42657e-020 1.96277e-018
RightArm -25.5741 -11.3485 70.9508
RightForeArm 20.4444 6.91075 7.92295
RightHand -1.45582 10.9551 -10.693
LeftUpLeg -8.50753 0.005038550002 -0.733317
LeftLeg 9.9225 -2.97162 0.10519
LeftFoot -6.32203 -0.134554 3.94105
LeftToes 3.91355e-005 3.11907e-005 -4.10385e-006
140
root 2.35741 39.3124 -31.5621 -178.177 19.3335 -178.58
RightUpLeg -10.5826 6.54896 -3.74728
RightLeg 12.5582 17.9128 0.911776
RightFoot -8.51516 -0.241692 7.43759
RightToes -0.000541893 -0.000659172 -0.000493268
Spine 2.27631 -1.09178 0.759432
Spine1 4.54955 -2.20661 1.38447
HEad 24.8873 -21.8652 -0.0946425
LeftShoulder1 -3.88251e-019 -0 -3.92111e-022
LeftArm -32.9127 -1.33082 -82.6295
LeftForeArm 30.5549 2.01675 -0.663883
LeftHand -0.962632 -4.42768 11.6414
RightShoulder 7.45443e-017 -2.42657e-020 1.96277e-018
RightArm -25.5669 -10.7669 71.2481
RightForeArm 21.6901 6.71509 7.58617
RightHand -1.35771 10.8441 -10.0679
LeftUpLeg -6.84187 0.515228 -1.65427
LeftLeg 10.5789 -2.63291 -0.373189
LeftFoot -7.73776 -0.0794466 4.00547
LeftToes 3.91355e-005 3.11907e-005 -4.10385e-006
141
root 2.32065 39.1037 -32.004 -179.409 19.6581 -179.729
RightUpLeg -12.1185 10.9263 -6.42833
RightLeg 17.8425 10.0602 3.14959
RightFoot -10.4371 -0.140943 8.74069
RightToes -0.000541893 -0.000659172 -0.000493268
Spine 2.16141 -1.27235 0.049677
Spine1 4.33031 -2.5419 0.599042
HEad 25.869 -20.7831 -0.368848
LeftShoulder1 -3.88251e-019 -0 -3.92111e-022
LeftArm -32.2785 -3.00334 -82.3331
LeftForeArm 30.5875 1.61345 -0.889242
LeftHand -0.987098 -4.62992 11.6994
RightShoulder 7.45443e-017 -2.42657e-020 1.96277e-018
RightArm -25.5419 -10.4138 71.6241
RightForeArm 22.3931 6.90993 7.57349
RightHand -1.31364 10.8557 -9.7496
LeftUpLeg -5.89021 1.14589 -2.85225
LeftLeg 12.0676 -2.83556 -0.948991
LeftFoot -9.38193 -0.00924069001 3.84109
LeftToes 3.91355e-005 3.11907e-005 -4.10385e-006
142
root 2.32309 38.953 -32.4159 179.634 19.9137 179.502
RightUpLeg -14.1762 8.09785 -6.90323
RightLeg 23.5878 6.00808 2.67555
RightFoot -10.5913 -0.136355 9.69544
RightToes -0.000541893 -0.000659172 -0.000493268
Spine 2.20935 -1.42334 -0.526713
Spine1 4.43732 -2.84322 0.0876494
HEad 25.9767 -20.1545 -0.338856
LeftShoulder1 -3.88251e-019 -0 -3.92111e-022
LeftArm -31.9065 -4.49811 -82.0095
LeftForeArm 31.162 1.0112 -1.19699
LeftHand -0.992727 -4.68208 11.706
RightShoulder 7.45443e-017 -2.42657e-020 1.96277e-018
RightArm -25.5508 -10.1154 72.1255
RightForeArm 22.51 7.15627 7.89468
RightHand -1.32416 10.9353 -9.77901
LeftUpLeg -4.93713 1.66283 -3.67179
LeftLeg 13.1318 -2.97102 -1.28382
LeftFoot -10.727 0.0455753 3.53922
LeftToes 3.91355e-005 3.11907e-005 -4.10385e-006
143
root 2.34129 38.898 -32.8158 179.138 20.411 179.396
RightUpLeg -16.5945 5.9286 -6.44321
RightLeg 28.3231 1.48329 0.624496
RightFoot -10.105 -0.159656 8.39871
RightToes -0.000541893 -0.000659172 -0.000493268
Spine 2.29589 -1.50487 -0.822572
Spine1 4.62181 -3.01582 0.079473
HEad 25.5845 -19.7065 -0.356433
LeftShoulder1 -3.88251e-019 -0 -3.92111e-022
LeftArm -31.7803 -5.28561 -81.8679
LeftForeArm 31.6221 0.171521 -1.37463
LeftHand -0.995034 -4.54608 11.8852
RightShoulder 7.45443e-017 -2.42657e-020 1.96277e-018
RightArm -25.4811 -9.74059 72.7475
RightForeArm 22.925 7.03968 8.0582
RightHand -1.30669 11.0098 -9.61497
LeftUpLeg -3.84409 1.57391 -3.93814
LeftLeg 13.3279 -2.26983 -1.16691
LeftFoot -11.679 0.0783918 2.78366
LeftToes 3.91355e-005 3.11907e-005 -4.10385e-006
144
root 2.39374 38.8923 -33.2036 179.059 20.9693 179.691
RightUpLeg -18.8037 4.59165 -5.56315
RightLeg 30.2779 -0.887825 -0.791309
RightFoot -8.69796 -0.212991 6.69552
RightToes -0.000541893 -0.000659172 -0.000493268
Spine 2.30214 -1.59756 -0.791388
Spine1 4.64788 -3.1901 0.37439
HEad 25.2718 -19.3745 -0.590398
LeftShoulder1 -3.88251e-019 -0 -3.92111e-022
LeftArm -31.7115 -5.08111 -82.0371
LeftForeArm 31.3777 -0.555879 -1.51667
LeftHand -1.00501 -4.42988 12.1355
RightShoulder 7.45443e-017 -2.42657e-020 1.96277e-018
RightArm -25.3473 -9.59829 73.3241
RightForeArm 23.8476 6.98168 7.86071
RightHand -1.26395 10.8891 -9.37983
LeftUpLeg -2.8937 1.3801 -3.83302
LeftLeg 13.1857 -1.43535 -0.864787
LeftFoot -12.5358 0.0918102 1.59449
LeftToes 3.91355e-005 3.11907e-005 -4.10385e-006
145
root 2.51002 38.8873 -33.6046 179.219 21.6156 -179.948
RightUpLeg -20.5147 3.89988 -4.61853
RightLeg 28.8589 -0.310325 -0.415918
RightFoot -6.42454 -0.308834 6.16788
RightToes -0.000541893 -0.000659172 -0.000493268
Spine 2.25818 -1.67382 -0.548186
Spine1 4.5728 -3.30675 0.652501
HEad 24.8528 -19.2872 -0.790646
LeftShoulder1 -3.88251e-019 -0 -3.92111e-022
LeftArm -31.6834 -4.11043 -82.4187
LeftForeArm 31.0099 -0.954029 -1.78738
LeftHand -1.00401 -4.42099 12.1342
RightShoulder 7.45443e-017 -2.42657e-020 1.96277e-018
RightArm -25.3834 -9.78343 73.7414
RightForeArm 24.7484 7.09838 7.64433
RightHand -1.23455 10.585 -9.33561
LeftUpLeg -2.15904 1.59975 -3.51906
LeftLeg 13.1601 -1.02415 -0.708174
LeftFoot -13.4806 0.0919671 0.592191
LeftToes 3.91355e-005 3.11907e-005 -4.10385e-006
